<svg width="32" height="32" viewBox="0 0 32 32" fill="none" xmlns="http://www.w3.org/2000/svg">
<path d="M29.375 15V8.00001C29.375 7.86251 29.3 7.73751 29.1812 7.66876L23.6812 4.66876C23.5688 4.60626 23.4313 4.60626 23.325 4.66876L21.875 5.45626V4.00001C21.875 3.86251 21.8 3.73751 21.6812 3.66876L16.1812 0.668762C16.0687 0.606262 15.9312 0.606262 15.825 0.668762L10.325 3.66876C10.2062 3.73751 10.1313 3.86251 10.1313 4.00001V5.45626L8.6875 4.66876C8.575 4.60626 8.4375 4.60626 8.33125 4.66876L2.83125 7.66876C2.7125 7.73751 2.6375 7.86251 2.6375 8.00001V15C2.6375 15.1375 2.7125 15.2625 2.83125 15.3313L4.05 16L2.81875 16.6688C2.7 16.7375 2.625 16.8625 2.625 17V24C2.625 24.1375 2.7 24.2625 2.81875 24.3313L8.31875 27.3313C8.43125 27.3938 8.56875 27.3938 8.675 27.3313L10.1187 26.5438V28C10.1187 28.1375 10.1937 28.2625 10.3125 28.3313L15.8125 31.3313C15.925 31.3938 16.0625 31.3938 16.1688 31.3313L21.6688 28.3313C21.7875 28.2625 21.8625 28.1375 21.8625 28V26.5375L23.3062 27.325C23.4187 27.3875 23.5562 27.3875 23.6625 27.325L29.1625 24.325C29.2812 24.2563 29.3563 24.1313 29.3563 23.9938V17C29.3563 16.8625 29.2812 16.7375 29.1625 16.6688L27.95 16L29.1812 15.3313C29.3 15.2625 29.375 15.1375 29.375 15ZM23.5 5.42501L28.2188 8.00001L23.5 10.575L18.7812 8.00001L23.5 5.42501ZM23.125 26.3688L21.875 25.6875V21C21.875 20.8625 21.8 20.7375 21.6812 20.6688L20.45 20L21.5812 19.3813L23.125 20.225V26.3688ZM16 23.575L11.2812 21L12.3313 20.425L15.8188 22.325C15.9313 22.3875 16.0687 22.3875 16.175 22.325L19.6625 20.425L20.7125 21L16 23.575ZM8.875 11.225L13.625 8.63751V9.87501L10.3188 11.675C10.2 11.7438 10.125 11.8688 10.125 12.0063V16.6938L8.875 17.375V11.225ZM10.875 4.63126L15.625 7.21876V8.77501L14.375 9.45626V8.00001C14.375 7.86251 14.3 7.73751 14.1812 7.66876L10.875 5.86876V4.63126ZM21.125 5.86876L17.8188 7.66876C17.7 7.73751 17.625 7.86251 17.625 8.00001V9.46251L16.375 8.78126V7.22501L21.125 4.63751V5.86876ZM16.375 21.3688V15.225L21.125 12.6375V18.7813L16.375 21.3688ZM16 14.575L11.2812 12L16 9.42501L20.7188 12L16 14.575ZM10.875 12.6313L15.625 15.2188V21.3625L10.875 18.7688V12.6313ZM21.6812 11.6688L18.375 9.86876V8.63126L23.125 11.2188V17.3625L21.875 16.6875V12C21.875 11.8625 21.8 11.7375 21.6812 11.6688ZM16 1.42501L20.7188 4.00001L16 6.57501L11.2812 4.00001L16 1.42501ZM8.5 5.42501L13.2188 8.00001L8.5 10.575L3.78125 8.00001L8.5 5.42501ZM3.375 14.775V8.63126L8.125 11.2188V17.3625L5.0125 15.6625L3.375 14.775ZM4.83125 16.425L8.31875 18.325C8.43125 18.3875 8.56875 18.3875 8.675 18.325L10.1187 17.5375V18.6875L8.49375 19.575L3.78125 17L4.83125 16.425ZM3.375 17.6313L8.125 20.225V26.3688L3.375 23.775V17.6313ZM8.875 26.3688V20.225L10.4187 19.3813L11.55 20L10.3188 20.6688C10.2 20.7375 10.125 20.8625 10.125 21V25.6875L8.875 26.3688ZM10.875 21.6313L15.625 24.225V30.3688L10.875 27.775V21.6313ZM21.125 27.775L16.375 30.3688V24.225L21.125 21.6313V27.775ZM23.875 26.3688V20.225L28.625 17.6313V23.775L23.875 26.3688ZM28.2188 17L23.5 19.575L21.875 18.6875V17.5375L23.3188 18.325C23.4312 18.3875 23.5687 18.3875 23.675 18.325L27.1625 16.425L28.2188 17ZM26.9875 15.6688L23.875 17.3688V11.225L28.625 8.63751V14.7813L26.9875 15.6688Z" fill="white"/>
</svg>
