<?xml version="1.0" encoding="UTF-8" standalone="no"?>
<!DOCTYPE svg PUBLIC "-//W3C//DTD SVG 1.1//EN" "http://www.w3.org/Graphics/SVG/1.1/DTD/svg11.dtd">
<svg width="100%" height="100%" viewBox="0 0 400 250" version="1.1" xmlns="http://www.w3.org/2000/svg" xmlns:xlink="http://www.w3.org/1999/xlink" xml:space="preserve" xmlns:serif="http://www.serif.com/" style="fill-rule:evenodd;clip-rule:evenodd;stroke-linejoin:round;stroke-miterlimit:2;">
    <g transform="matrix(0.241104,0,0,0.241104,-163.283,-146.917)">
        <g>
            <path d="M2325,1072.6L1724.3,635.2L1508.1,1031.1L1291.2,633.8L688.5,1074.5L688.5,1179.2L1293.8,1621.8L1322.3,1569.8L1508.1,1230.3L1721.7,1620.5L2325,1181.2L2325,1072.6ZM1268.3,1470.5L788.2,1128.9L788.2,1125L1264.8,785.9L1453.7,1130.9L1268.3,1470.5ZM2229.4,1128.9L1747.3,1469.3L1562.5,1130.9L1750.8,787L2229.4,1125L2229.4,1128.9Z" style="fill:url(#_Linear1);fill-rule:nonzero;"/>
            <path d="M1453.7,1130.9L1428.6,1085.1L1485.9,990.5L1508.4,1030.9L1453.7,1130.9Z" style="fill:url(#_Linear2);fill-rule:nonzero;"/>
            <path d="M1562.6,1130.9L1587.2,1176.1L1529,1268.2L1508.1,1230.3L1562.6,1130.9Z" style="fill:url(#_Linear3);fill-rule:nonzero;"/>
        </g>
    </g>
    <defs>
        <linearGradient id="_Linear1" x1="0" y1="0" x2="1" y2="0" gradientUnits="userSpaceOnUse" gradientTransform="matrix(1636.53,0,0,1636.53,688.473,1127.88)"><stop offset="0" style="stop-color:rgb(179,179,179);stop-opacity:1"/><stop offset="0.48" style="stop-color:rgb(183,151,255);stop-opacity:1"/><stop offset="0.6" style="stop-color:rgb(183,152,251);stop-opacity:1"/><stop offset="0.72" style="stop-color:rgb(182,156,240);stop-opacity:1"/><stop offset="0.83" style="stop-color:rgb(181,163,222);stop-opacity:1"/><stop offset="0.94" style="stop-color:rgb(180,173,196);stop-opacity:1"/><stop offset="0.99" style="stop-color:rgb(179,179,179);stop-opacity:1"/><stop offset="1" style="stop-color:rgb(179,179,179);stop-opacity:1"/></linearGradient>
        <linearGradient id="_Linear2" x1="0" y1="0" x2="1" y2="0" gradientUnits="userSpaceOnUse" gradientTransform="matrix(-55.5729,-29.1711,29.1711,-55.5729,1503.43,1078.44)"><stop offset="0" style="stop-color:rgb(76,97,179);stop-opacity:1"/><stop offset="0.72" style="stop-color:rgb(183,151,254);stop-opacity:1"/><stop offset="1" style="stop-color:rgb(183,151,254);stop-opacity:1"/></linearGradient>
        <linearGradient id="_Linear3" x1="0" y1="0" x2="1" y2="0" gradientUnits="userSpaceOnUse" gradientTransform="matrix(52.4988,31.0244,-31.0244,52.4988,1513.26,1180.14)"><stop offset="0" style="stop-color:rgb(76,97,179);stop-opacity:1"/><stop offset="0.72" style="stop-color:rgb(183,151,254);stop-opacity:1"/><stop offset="1" style="stop-color:rgb(183,151,254);stop-opacity:1"/></linearGradient>
    </defs>
</svg>
